<svg xmlns="http://www.w3.org/2000/svg" xmlns:xlink="http://www.w3.org/1999/xlink" xmlns:fi="http://pattern.flaticon.com/" x="0" y="0" width="1200" height="600" viewBox="0 0 1200 600"><rect x="0px" y="0px" width="100%" height="100%" opacity="1" fill="#faf9f9"/><defs><g transform="matrix(0.18342378735542297 0 0 0.18342378735542297 305 305)" id="L1_157"><path d="M490.667,106.667v330.667c0,17.707-14.293,32-32,32H32c-17.707,0-32-14.293-32-32V106.667H490.667z" fill="#f1f2f2"/><path d="M490.667,53.333v53.333H0V53.333c0-17.707,14.293-32,32-32h426.667  C476.373,21.333,490.667,35.627,490.667,53.333z" fill="#a4b0c0"/><path d="M85.333,245.333h320v224h-320V245.333z" fill="#d0d7df"/><path d="M405.333,181.333v64h-320v-64c0-11.733,9.6-21.333,21.333-21.333H384  C395.733,160,405.333,169.6,405.333,181.333z" fill="#fed049"/><g><path d="M53.333,74.667H64c5.899,0,10.667-4.768,10.667-10.667S69.899,53.333,64,53.333H53.333   c-5.899,0-10.667,4.768-10.667,10.667S47.435,74.667,53.333,74.667z" fill="#768ba0"/><path d="M106.667,74.667h10.667C123.232,74.667,128,69.899,128,64s-4.768-10.667-10.667-10.667h-10.667   C100.768,53.333,96,58.101,96,64S100.768,74.667,106.667,74.667z" fill="#768ba0"/><path d="M426.667,74.667h10.667C443.232,74.667,448,69.899,448,64s-4.768-10.667-10.667-10.667h-10.667   C420.768,53.333,416,58.101,416,64S420.768,74.667,426.667,74.667z" fill="#768ba0"/></g><g><path d="M128,213.333h10.667c5.899,0,10.667-4.768,10.667-10.667S144.565,192,138.667,192H128   c-5.899,0-10.667,4.768-10.667,10.667S122.101,213.333,128,213.333z" fill="#f6b445"/><path d="M192,213.333c5.899,0,10.667-4.768,10.667-10.667S197.899,192,192,192h-10.667   c-5.899,0-10.667,4.768-10.667,10.667s4.768,10.667,10.667,10.667H192z" fill="#f6b445"/><path d="M362.667,192H352c-5.899,0-10.667,4.768-10.667,10.667s4.768,10.667,10.667,10.667h10.667   c5.899,0,10.667-4.768,10.667-10.667S368.565,192,362.667,192z" fill="#f6b445"/></g><g><path d="M220.875,312.459c-4.171-4.171-10.912-4.171-15.083,0l-32,32c-4.171,4.171-4.171,10.912,0,15.083   l32,32c2.08,2.08,4.811,3.125,7.541,3.125s5.461-1.045,7.541-3.125c4.171-4.171,4.171-10.912,0-15.083L196.416,352l24.459-24.459   C225.045,323.371,225.045,316.629,220.875,312.459L220.875,312.459z" fill="#a4b0c0"/><path d="M284.875,312.459c-4.171-4.171-10.912-4.171-15.083,0c-4.171,4.171-4.171,10.912,0,15.083   L294.251,352l-24.459,24.459c-4.171,4.171-4.171,10.912,0,15.083c2.08,2.08,4.811,3.125,7.541,3.125   c2.731,0,5.461-1.045,7.541-3.125l32-32c4.171-4.171,4.171-10.912,0-15.083L284.875,312.459z" fill="#a4b0c0"/></g></g><g transform="matrix(1 0 0 1 345 82.5)" id="L1_158"/><g transform="matrix(-0.12228252738714218 0 0 0.12228252738714218 117.41843841969967 57.50000047766616)" id="L1_159"><path d="M490.667,106.667v330.667c0,17.707-14.293,32-32,32H32c-17.707,0-32-14.293-32-32V106.667H490.667z" fill="#f1f2f2"/><path d="M490.667,53.333v53.333H0V53.333c0-17.707,14.293-32,32-32h426.667  C476.373,21.333,490.667,35.627,490.667,53.333z" fill="#a4b0c0"/><path d="M85.333,245.333h320v224h-320V245.333z" fill="#d0d7df"/><path d="M405.333,181.333v64h-320v-64c0-11.733,9.6-21.333,21.333-21.333H384  C395.733,160,405.333,169.6,405.333,181.333z" fill="#fed049"/><g><path d="M53.333,74.667H64c5.899,0,10.667-4.768,10.667-10.667S69.899,53.333,64,53.333H53.333   c-5.899,0-10.667,4.768-10.667,10.667S47.435,74.667,53.333,74.667z" fill="#768ba0"/><path d="M106.667,74.667h10.667C123.232,74.667,128,69.899,128,64s-4.768-10.667-10.667-10.667h-10.667   C100.768,53.333,96,58.101,96,64S100.768,74.667,106.667,74.667z" fill="#768ba0"/><path d="M426.667,74.667h10.667C443.232,74.667,448,69.899,448,64s-4.768-10.667-10.667-10.667h-10.667   C420.768,53.333,416,58.101,416,64S420.768,74.667,426.667,74.667z" fill="#768ba0"/></g><g><path d="M128,213.333h10.667c5.899,0,10.667-4.768,10.667-10.667S144.565,192,138.667,192H128   c-5.899,0-10.667,4.768-10.667,10.667S122.101,213.333,128,213.333z" fill="#f6b445"/><path d="M192,213.333c5.899,0,10.667-4.768,10.667-10.667S197.899,192,192,192h-10.667   c-5.899,0-10.667,4.768-10.667,10.667s4.768,10.667,10.667,10.667H192z" fill="#f6b445"/><path d="M362.667,192H352c-5.899,0-10.667,4.768-10.667,10.667s4.768,10.667,10.667,10.667h10.667   c5.899,0,10.667-4.768,10.667-10.667S368.565,192,362.667,192z" fill="#f6b445"/></g><g><path d="M220.875,312.459c-4.171-4.171-10.912-4.171-15.083,0l-32,32c-4.171,4.171-4.171,10.912,0,15.083   l32,32c2.08,2.08,4.811,3.125,7.541,3.125s5.461-1.045,7.541-3.125c4.171-4.171,4.171-10.912,0-15.083L196.416,352l24.459-24.459   C225.045,323.371,225.045,316.629,220.875,312.459L220.875,312.459z" fill="#a4b0c0"/><path d="M284.875,312.459c-4.171-4.171-10.912-4.171-15.083,0c-4.171,4.171-4.171,10.912,0,15.083   L294.251,352l-24.459,24.459c-4.171,4.171-4.171,10.912,0,15.083c2.08,2.08,4.811,3.125,7.541,3.125   c2.731,0,5.461-1.045,7.541-3.125l32-32c4.171-4.171,4.171-10.912,0-15.083L284.875,312.459z" fill="#a4b0c0"/></g></g><g transform="matrix(0.08152168244123459 0 0 0.08152168244123459 242.5 67.5)" id="L1_160"><path d="M330.667,213.333v64c0,11.733-9.6,21.333-21.333,21.333h-128c-11.733,0-21.333-9.6-21.333-21.333v-64  C160,201.6,169.6,192,181.333,192h128C321.067,192,330.667,201.6,330.667,213.333z" fill="#a4b0c0"/><path d="M330.667,21.333v64c0,11.733-9.6,21.333-21.333,21.333h-128c-11.733,0-21.333-9.6-21.333-21.333v-64  C160,9.6,169.6,0,181.333,0h128C321.067,0,330.667,9.6,330.667,21.333z" fill="#fed049"/><path d="M330.667,405.333v64c0,11.733-9.6,21.333-21.333,21.333h-128c-11.733,0-21.333-9.6-21.333-21.333v-64  C160,393.6,169.6,384,181.333,384h128C321.067,384,330.667,393.6,330.667,405.333z" fill="#d0d7df"/><g><path d="M448,42.667H160c-5.899,0-10.667,4.768-10.667,10.667S154.101,64,160,64h287.872   c4.928,0.128,10.795,2.069,10.795,10.667v149.205c-0.128,4.928-2.069,10.795-10.667,10.795h-38.251l13.792-13.792   c4.171-4.171,4.171-10.912,0-15.083s-10.912-4.171-15.083,0l-31.989,31.989c-0.992,0.981-1.771,2.165-2.315,3.477   c-1.077,2.603-1.077,5.547,0,8.149c0.544,1.312,1.323,2.496,2.315,3.477l31.989,31.989c2.08,2.08,4.811,3.125,7.541,3.125   c2.731,0,5.461-1.045,7.541-3.125c4.171-4.171,4.171-10.912,0-15.083L409.749,256H448c23.477,0,32-19.136,32-32V74.667   C480,51.189,460.864,42.667,448,42.667L448,42.667z" fill="#768ba0"/><path d="M330.667,234.667h-288c-12.864,0-32,8.523-32,32V416c0,12.864,8.523,32,32,32h38.251l-13.792,13.792   c-4.171,4.171-4.171,10.912,0,15.083c2.08,2.08,4.811,3.125,7.541,3.125c2.731,0,5.461-1.045,7.541-3.125l31.989-31.989   c0.992-0.981,1.771-2.165,2.315-3.477c1.077-2.603,1.077-5.536,0-8.149c-0.544-1.312-1.333-2.496-2.315-3.488l-31.989-31.989   c-4.171-4.171-10.912-4.171-15.083,0s-4.171,10.912,0,15.083l13.792,13.803H42.667C34.069,426.667,32.128,420.8,32,416V266.667   c0-8.597,5.867-10.539,10.667-10.667h288c5.899,0,10.667-4.768,10.667-10.667C341.333,239.435,336.565,234.667,330.667,234.667z" fill="#768ba0"/></g><g><path d="M224,426.667h-10.667c-5.899,0-10.667,4.768-10.667,10.667S207.435,448,213.333,448H224   c5.899,0,10.667-4.768,10.667-10.667S229.899,426.667,224,426.667z" fill="#a4b0c0"/><path d="M266.667,448h10.667c5.899,0,10.667-4.768,10.667-10.667s-4.768-10.667-10.667-10.667h-10.667   c-5.899,0-10.667,4.768-10.667,10.667S260.768,448,266.667,448z" fill="#a4b0c0"/></g><g><path d="M234.667,106.667H256V192h-21.333V106.667z" fill="#768ba0"/><path d="M234.667,298.667H256V384h-21.333V298.667z" fill="#768ba0"/></g></g><g transform="matrix(0.040760841220617294 0 0 0.040760841220617294 340 165)" id="L1_161"><path d="M362.667,448v42.667H128V448h32h170.667H362.667z" fill="#d0d7df"/><path d="M309.333,384l21.333,64H160l21.333-64H309.333z" fill="#a4b0c0"/><path d="M490.667,32v266.667H0V32C0,14.293,14.293,0,32,0h426.667C476.373,0,490.667,14.293,490.667,32z" fill="#65ccd8"/><path d="M490.667,298.667V352c0,17.707-14.293,32-32,32H309.333h-128H32c-17.707,0-32-14.293-32-32v-53.333  H490.667z" fill="#d0d7df"/><path d="M85.333,85.333h320v213.333h-320V85.333z" fill="#f1f2f2"/><path d="M405.333,21.333v64h-320v-64C85.333,9.6,94.933,0,106.667,0H384  C395.733,0,405.333,9.6,405.333,21.333z" fill="#fed049"/><g><path d="M128,53.333h10.667c5.899,0,10.667-4.768,10.667-10.667S144.565,32,138.667,32H128   c-5.899,0-10.667,4.768-10.667,10.667S122.101,53.333,128,53.333z" fill="#f6b445"/><path d="M192,53.333c5.899,0,10.667-4.768,10.667-10.667S197.899,32,192,32h-10.667   c-5.899,0-10.667,4.768-10.667,10.667s4.768,10.667,10.667,10.667H192z" fill="#f6b445"/><path d="M362.667,32H352c-5.899,0-10.667,4.768-10.667,10.667S346.101,53.333,352,53.333h10.667   c5.899,0,10.667-4.768,10.667-10.667S368.565,32,362.667,32z" fill="#f6b445"/></g><g><path d="M131.125,210.208c2.08,2.08,4.811,3.125,7.541,3.125s5.461-1.045,7.541-3.125l32-32   c4.171-4.171,4.171-10.912,0-15.083l-32-32c-4.171-4.171-10.912-4.171-15.083,0s-4.171,10.912,0,15.083l24.459,24.459   l-24.459,24.459C126.955,199.296,126.955,206.037,131.125,210.208L131.125,210.208z" fill="#d0d7df"/><path d="M202.667,192c-5.899,0-10.667,4.768-10.667,10.667s4.768,10.667,10.667,10.667h42.667   c5.899,0,10.667-4.768,10.667-10.667S251.232,192,245.333,192H202.667z" fill="#d0d7df"/></g><path d="M309.333,384h-128l-7.115,21.333h142.229L309.333,384z" fill="#97a3b2"/></g><g transform="matrix(0.040760841220617294 0 0 0.040760841220617294 165 165)" id="L1_162"><path d="M362.667,448v42.667H128V448h32h170.667H362.667z" fill="#d0d7df"/><path d="M309.333,384l21.333,64H160l21.333-64H309.333z" fill="#a4b0c0"/><path d="M490.667,32v266.667H0V32C0,14.293,14.293,0,32,0h426.667C476.373,0,490.667,14.293,490.667,32z" fill="#65ccd8"/><path d="M490.667,298.667V352c0,17.707-14.293,32-32,32H309.333h-128H32c-17.707,0-32-14.293-32-32v-53.333  H490.667z" fill="#d0d7df"/><g><path d="M56.459,135.541c2.08,2.08,4.811,3.125,7.541,3.125c2.731,0,5.461-1.045,7.541-3.125l32-32   c4.171-4.171,4.171-10.912,0-15.083l-32-32c-4.171-4.171-10.912-4.171-15.083,0s-4.171,10.912,0,15.083L80.917,96l-24.459,24.459   C52.288,124.629,52.288,131.371,56.459,135.541L56.459,135.541z" fill="#f1f2f2"/><path d="M128,138.667h42.667c5.888,0,10.667-4.779,10.667-10.667s-4.779-10.667-10.667-10.667H128   c-5.888,0-10.667,4.779-10.667,10.667S122.112,138.667,128,138.667z" fill="#f1f2f2"/></g><path d="M309.333,384h-128l-7.115,21.333h142.229L309.333,384z" fill="#97a3b2"/></g><g transform="matrix(1 0 0 1 82.5 257.5)" id="L1_163"/><g transform="matrix(-0.12228252738714218 0 0 0.12228252738714218 204.91843841969967 232.5)" id="L1_164"><path d="M362.667,448v42.667H128V448h32h170.667H362.667z" fill="#d0d7df"/><path d="M309.333,384l21.333,64H160l21.333-64H309.333z" fill="#a4b0c0"/><path d="M490.667,32v266.667H0V32C0,14.293,14.293,0,32,0h426.667C476.373,0,490.667,14.293,490.667,32z" fill="#65ccd8"/><path d="M490.667,298.667V352c0,17.707-14.293,32-32,32H309.333h-128H32c-17.707,0-32-14.293-32-32v-53.333  H490.667z" fill="#d0d7df"/><path d="M85.333,85.333h320v213.333h-320V85.333z" fill="#f1f2f2"/><path d="M405.333,21.333v64h-320v-64C85.333,9.6,94.933,0,106.667,0H384  C395.733,0,405.333,9.6,405.333,21.333z" fill="#fed049"/><g><path d="M128,53.333h10.667c5.899,0,10.667-4.768,10.667-10.667S144.565,32,138.667,32H128   c-5.899,0-10.667,4.768-10.667,10.667S122.101,53.333,128,53.333z" fill="#f6b445"/><path d="M192,53.333c5.899,0,10.667-4.768,10.667-10.667S197.899,32,192,32h-10.667   c-5.899,0-10.667,4.768-10.667,10.667s4.768,10.667,10.667,10.667H192z" fill="#f6b445"/><path d="M362.667,32H352c-5.899,0-10.667,4.768-10.667,10.667S346.101,53.333,352,53.333h10.667   c5.899,0,10.667-4.768,10.667-10.667S368.565,32,362.667,32z" fill="#f6b445"/></g><g><path d="M131.125,210.208c2.08,2.08,4.811,3.125,7.541,3.125s5.461-1.045,7.541-3.125l32-32   c4.171-4.171,4.171-10.912,0-15.083l-32-32c-4.171-4.171-10.912-4.171-15.083,0s-4.171,10.912,0,15.083l24.459,24.459   l-24.459,24.459C126.955,199.296,126.955,206.037,131.125,210.208L131.125,210.208z" fill="#d0d7df"/><path d="M202.667,192c-5.899,0-10.667,4.768-10.667,10.667s4.768,10.667,10.667,10.667h42.667   c5.899,0,10.667-4.768,10.667-10.667S251.232,192,245.333,192H202.667z" fill="#d0d7df"/></g><path d="M309.333,384h-128l-7.115,21.333h142.229L309.333,384z" fill="#97a3b2"/></g></defs><g fi:class="KUsePattern"><pattern id="pattern_L1_157" width="350" height="350" patternUnits="userSpaceOnUse"><use xlink:href="#L1_157" x="-350" y="-350"/><use xlink:href="#L1_157" x="0" y="-350"/><use xlink:href="#L1_157" x="350" y="-350"/><use xlink:href="#L1_157" x="-350" y="0"/><use xlink:href="#L1_157" x="0" y="0"/><use xlink:href="#L1_157" x="350" y="0"/><use xlink:href="#L1_157" x="-350" y="350"/><use xlink:href="#L1_157" x="0" y="350"/><use xlink:href="#L1_157" x="350" y="350"/></pattern><rect x="0" y="0" width="100%" height="100%" fill="url(#pattern_L1_157)"/></g><g fi:class="KUsePattern"><pattern id="pattern_L1_158" width="350" height="350" patternUnits="userSpaceOnUse"><use xlink:href="#L1_158" x="-350" y="-350"/><use xlink:href="#L1_158" x="0" y="-350"/><use xlink:href="#L1_158" x="350" y="-350"/><use xlink:href="#L1_158" x="-350" y="0"/><use xlink:href="#L1_158" x="0" y="0"/><use xlink:href="#L1_158" x="350" y="0"/><use xlink:href="#L1_158" x="-350" y="350"/><use xlink:href="#L1_158" x="0" y="350"/><use xlink:href="#L1_158" x="350" y="350"/></pattern><rect x="0" y="0" width="100%" height="100%" fill="url(#pattern_L1_158)"/></g><g fi:class="KUsePattern"><pattern id="pattern_L1_159" width="350" height="350" patternUnits="userSpaceOnUse"><use xlink:href="#L1_159" x="-350" y="-350"/><use xlink:href="#L1_159" x="0" y="-350"/><use xlink:href="#L1_159" x="350" y="-350"/><use xlink:href="#L1_159" x="-350" y="0"/><use xlink:href="#L1_159" x="0" y="0"/><use xlink:href="#L1_159" x="350" y="0"/><use xlink:href="#L1_159" x="-350" y="350"/><use xlink:href="#L1_159" x="0" y="350"/><use xlink:href="#L1_159" x="350" y="350"/></pattern><rect x="0" y="0" width="100%" height="100%" fill="url(#pattern_L1_159)"/></g><g fi:class="KUsePattern"><pattern id="pattern_L1_160" width="350" height="350" patternUnits="userSpaceOnUse"><use xlink:href="#L1_160" x="-350" y="-350"/><use xlink:href="#L1_160" x="0" y="-350"/><use xlink:href="#L1_160" x="350" y="-350"/><use xlink:href="#L1_160" x="-350" y="0"/><use xlink:href="#L1_160" x="0" y="0"/><use xlink:href="#L1_160" x="350" y="0"/><use xlink:href="#L1_160" x="-350" y="350"/><use xlink:href="#L1_160" x="0" y="350"/><use xlink:href="#L1_160" x="350" y="350"/></pattern><rect x="0" y="0" width="100%" height="100%" fill="url(#pattern_L1_160)"/></g><g fi:class="KUsePattern"><pattern id="pattern_L1_161" width="350" height="350" patternUnits="userSpaceOnUse"><use xlink:href="#L1_161" x="-350" y="-350"/><use xlink:href="#L1_161" x="0" y="-350"/><use xlink:href="#L1_161" x="350" y="-350"/><use xlink:href="#L1_161" x="-350" y="0"/><use xlink:href="#L1_161" x="0" y="0"/><use xlink:href="#L1_161" x="350" y="0"/><use xlink:href="#L1_161" x="-350" y="350"/><use xlink:href="#L1_161" x="0" y="350"/><use xlink:href="#L1_161" x="350" y="350"/></pattern><rect x="0" y="0" width="100%" height="100%" fill="url(#pattern_L1_161)"/></g><g fi:class="KUsePattern"><pattern id="pattern_L1_162" width="350" height="350" patternUnits="userSpaceOnUse"><use xlink:href="#L1_162" x="-350" y="-350"/><use xlink:href="#L1_162" x="0" y="-350"/><use xlink:href="#L1_162" x="350" y="-350"/><use xlink:href="#L1_162" x="-350" y="0"/><use xlink:href="#L1_162" x="0" y="0"/><use xlink:href="#L1_162" x="350" y="0"/><use xlink:href="#L1_162" x="-350" y="350"/><use xlink:href="#L1_162" x="0" y="350"/><use xlink:href="#L1_162" x="350" y="350"/></pattern><rect x="0" y="0" width="100%" height="100%" fill="url(#pattern_L1_162)"/></g><g fi:class="KUsePattern"><pattern id="pattern_L1_163" width="350" height="350" patternUnits="userSpaceOnUse"><use xlink:href="#L1_163" x="-350" y="-350"/><use xlink:href="#L1_163" x="0" y="-350"/><use xlink:href="#L1_163" x="350" y="-350"/><use xlink:href="#L1_163" x="-350" y="0"/><use xlink:href="#L1_163" x="0" y="0"/><use xlink:href="#L1_163" x="350" y="0"/><use xlink:href="#L1_163" x="-350" y="350"/><use xlink:href="#L1_163" x="0" y="350"/><use xlink:href="#L1_163" x="350" y="350"/></pattern><rect x="0" y="0" width="100%" height="100%" fill="url(#pattern_L1_163)"/></g><g fi:class="KUsePattern"><pattern id="pattern_L1_164" width="350" height="350" patternUnits="userSpaceOnUse"><use xlink:href="#L1_164" x="-350" y="-350"/><use xlink:href="#L1_164" x="0" y="-350"/><use xlink:href="#L1_164" x="350" y="-350"/><use xlink:href="#L1_164" x="-350" y="0"/><use xlink:href="#L1_164" x="0" y="0"/><use xlink:href="#L1_164" x="350" y="0"/><use xlink:href="#L1_164" x="-350" y="350"/><use xlink:href="#L1_164" x="0" y="350"/><use xlink:href="#L1_164" x="350" y="350"/></pattern><rect x="0" y="0" width="100%" height="100%" fill="url(#pattern_L1_164)"/></g></svg>